<svg xmlns="http://www.w3.org/2000/svg" xmlns:xlink="http://www.w3.org/1999/xlink" version="1.1" id="Layer_1" x="0px" y="0px" viewBox="0 0 163.8 39.6" style="enable-background:new 0 0 163.8 39.6;" xml:space="preserve">
<style type="text/css">
	.st0{fill:#958B79;}
</style>
<path class="st0" d="M145.8,39.7c-7,0-14,0-21.1,0c-6.4,0-12.7,0.2-19.1,0.2c-6.6,0-13.1-0.1-19.7-0.2c-5.8-0.1-11.6-0.5-17.4-0.6
	c-4.5,0-9,0.4-13.5,0.5c-3.6,0-7.3-0.2-10.9-0.3c-4.8-0.1-9.6,0-14.4-0.1c-4.5-0.1-8.9-0.2-13.4-0.3c-3.6-0.1-7.3-0.2-10.9-0.5
	c-2.7-0.2-5-2.4-5-6.3c0-3-0.3-5.9-0.4-8.9c-0.1-2.9,0-5.8,0-8.8c0-2.5-0.2-5.1,0.1-7.6C0.7,2.2,3.1,0.1,8,0.2
	c6.5,0.1,13,0.5,19.5,0.6c4.2,0.1,8.4,0.1,12.6,0c7.2-0.1,14.4-0.3,21.7-0.3C69.4,0.7,77,1.2,84.6,1.3c4.5,0.1,9,0.1,13.5,0
	c7.3-0.1,14.6-0.2,21.9-0.5c7.7-0.3,15.3-0.7,23-0.9c3.2-0.1,6.4,0,9.5,0.2c6.3,0.5,9.3,4.1,9.4,11.2c0.1,6.6,0.2,13.2,0,19.8
	c-0.2,4.8-3.1,8.2-7.7,8.4C151.4,39.8,148.6,39.7,145.8,39.7z"/>
<path class="st0" d="M163.8,21.2c0.2-4.8,0.1-9.6,0.7-14.4c0.4-3.7,3.1-6,6.8-6.2c5.2-0.3,10.4-0.3,15.5-0.4
	c3.2-0.1,6.3-0.1,9.5-0.1c5.7,0.1,11.4,0.2,17.1,0.3c7.6,0,15.1-0.1,22.7,0c2.8,0,5.5,0.3,8.3,0.4c4.2,0.1,8.3-0.1,12.5,0.3
	c4.8,0.4,7.4,3.6,7.6,8.5c0.1,4.8,0.1,9.6,0.1,14.4c0,2.2,0.2,4.4,0.1,6.6c-0.3,5.6-2.8,8.3-8.3,8.6c-4.3,0.2-8.7,0.1-13,0.2
	c-6.3,0.1-12.6,0.2-18.8,0.1c-6.9-0.1-13.9-0.3-20.8-0.4c-3.8,0-7.6,0.2-11.4,0.3c-5.5,0.1-11.1,0.1-16.6,0.2
	c-2.7,0.1-5.3,0.1-7.8-1.3c-1.9-1.1-3.1-2.7-3.2-4.7c-0.3-3.7-0.3-7.4-0.4-11.1c0-0.4,0-0.8,0-1.1C164,21.2,163.9,21.2,163.8,21.2z"
	/>
</svg>
