<svg xmlns="http://www.w3.org/2000/svg" xmlns:xlink="http://www.w3.org/1999/xlink" version="1.1" id="Layer_1" x="0px" y="0px" viewBox="0 0 100.8 39.6" style="enable-background:new 0 0 100.8 39.6;" xml:space="preserve">
<style type="text/css">
	.st0{fill:#958B79;}
</style>
<path class="st0" d="M98.9,15.5c0,5,0,9.9,0,14.9c0,4.6-2.8,8.3-7.3,8.5c-4.1,0.3-8.3,0.2-12.4,0.3c-3.5,0.1-7,0.3-10.5,0.3
	c-5.5,0-11-0.1-16.6-0.1c-8.9,0.1-17.8,0.3-26.7,0.3c-5.1,0-10.1-0.1-15.2-0.2c-1.1,0-2.2-0.3-3.3-0.7c-3.6-1.3-5-4.3-5-8
	C2,23.7,1.8,16.5,2,9.3c0.1-6.4,3.2-9.1,9.3-8.9c4.6,0.2,9.2,0.3,13.8,0.3c10.2,0,20.4-0.1,30.5,0c8.2,0,16.5,0.2,24.7,0.2
	c3.3,0,6.6-0.3,9.8,0c6.4,0.6,8.5,3.1,8.6,9.9C98.9,12.4,98.8,14,98.9,15.5C98.9,15.5,98.9,15.5,98.9,15.5z"/>
<path class="st0" d="M100.8,19.5c0-3-0.1-6.1,0-9.1c0.2-6.8,3-9.6,9.7-9.6c10.2-0.1,20.4-0.1,30.6-0.1c5.6,0,11.2,0.2,16.8,0.2
	c7.4,0,14.8-0.1,22.3-0.2c4.2,0,8.4-0.5,12.6-0.1c5.5,0.4,8.6,3.8,8.7,9.4c0.1,6.7,0.1,13.5-0.2,20.2c-0.2,4.8-3.3,8.9-8.6,9.1
	c-6.2,0.2-12.5,0.2-18.7,0.1c-8.2,0-16.3-0.2-24.5-0.3c-8.4,0-16.8,0.2-25.2,0.2c-4.9,0-9.8-0.1-14.6-0.4c-5.1-0.3-8.1-3.3-8.5-8.4
	c-0.2-3.7,0-7.4,0-11C101,19.5,100.9,19.5,100.8,19.5z"/>
</svg>
