<svg xmlns="http://www.w3.org/2000/svg" xmlns:xlink="http://www.w3.org/1999/xlink" version="1.1" id="Layer_1" x="0px" y="0px" viewBox="0 0 163.8 39.9" style="enable-background:new 0 0 163.8 39.9;" xml:space="preserve">
<style type="text/css">
	.st0{fill:#958B79;}
</style>  
<path class="st0" d="M24.4,0.2c5.3,0,10.6,0,16,0c4.9-0.1,9.7-0.3,14.6-0.3c4.3,0,8.7,0.2,13,0.2c3.2,0,6.3-0.1,9.5,0
	c5.9,0.1,11.9,0.5,17.8,0.5c4.5,0,9.1-0.4,13.6-0.5c3.4-0.1,6.8,0.2,10.2,0.2c5,0.1,10,0.1,15.1,0.1c4.4,0.1,8.9,0.2,13.3,0.3
	c3.4,0.1,6.9,0.2,10.3,0.4c3.8,0.2,5.6,2.5,5.7,6.6c0.1,5.5,0.3,10.9,0.3,16.4c0,3-0.1,6.1-0.3,9.1c-0.3,3.3-2.5,5.9-5.5,6
	c-5.6,0.2-11.2,0.1-16.8,0.1c-5.8,0-11.7-0.3-17.5-0.2c-8.4,0-16.8,0.3-25.2,0.2c-6.4-0.1-12.8-0.6-19.2-0.7c-6-0.1-12,0.3-17.9,0.4
	c-5.5,0.1-11-0.1-16.4,0c-6.1,0.1-12.3,0.5-18.4,0.6c-4.4,0.1-8.8,0-13.2-0.2c-2.2-0.1-4.4-0.3-6.4-1c-3.2-1.1-4.8-4.1-4.9-7.7
	c-0.2-3.6,0-7.3,0-10.9c0-4-0.2-8.1,0.1-12.1c0.3-4.6,3.6-7.6,7.7-7.6c4.9,0,9.8,0,14.7,0C24.4,0.1,24.4,0.1,24.4,0.2z"/>
</svg>
