<svg xmlns="http://www.w3.org/2000/svg" xmlns:xlink="http://www.w3.org/1999/xlink" version="1.1" id="Layer_1" x="0px" y="0px" viewBox="0 0 100.8 39.9" style="enable-background:new 0 0 100.8 39.9;" xml:space="preserve">
<style type="text/css">
	.st0{fill:#958B79;}
</style>
<path class="st0" d="M0,19.5c0-3-0.1-6.1,0-9.1c0.2-6.8,3-9.6,9.7-9.6C20,0.7,30.2,0.6,40.3,0.6c5.6,0,11.2,0.2,16.8,0.2
	c7.4,0,14.8-0.1,22.3-0.2c4.2,0,8.4-0.5,12.6-0.1c5.5,0.4,8.6,3.8,8.7,9.4c0.1,6.7,0.1,13.5-0.2,20.2c-0.2,4.8-3.3,8.9-8.6,9.1
	c-6.2,0.2-12.5,0.2-18.7,0.1c-8.2,0-16.3-0.2-24.5-0.3c-8.4,0-16.8,0.2-25.2,0.2c-4.9,0-9.8-0.1-14.6-0.4c-5.1-0.3-8.1-3.3-8.5-8.4
	c-0.2-3.7,0-7.4,0-11C0.2,19.5,0.1,19.5,0,19.5z"/>
</svg>
