<svg xmlns="http://www.w3.org/2000/svg" xmlns:xlink="http://www.w3.org/1999/xlink" version="1.1" id="Layer_1" x="0px" y="0px" viewBox="0 0 100.8 39.5" style="enable-background:new 0 0 100.8 39.5;" xml:space="preserve">
<style type="text/css">
	.st0{fill:#958B79;}
</style>
<path class="st0" d="M0,21c0.2-4.8,0.1-9.6,0.7-14.4c0.4-3.7,3.1-6,6.8-6.2C12.7,0.1,17.9,0.1,23.1,0c3.2-0.1,6.3-0.1,9.5-0.1
	c5.7,0.1,11.4,0.2,17.1,0.3c7.6,0,15.1-0.1,22.7,0c2.8,0,5.5,0.3,8.3,0.4c4.2,0.1,8.3-0.1,12.5,0.3c4.8,0.4,7.4,3.6,7.6,8.5
	c0.1,4.8,0.1,9.6,0.1,14.4c0,2.2,0.2,4.4,0.1,6.6c-0.3,5.6-2.8,8.3-8.3,8.6c-4.3,0.2-8.7,0.1-13,0.2c-6.3,0.1-12.6,0.2-18.8,0.1
	c-6.9-0.1-13.9-0.3-20.8-0.4c-3.8,0-7.6,0.2-11.4,0.3c-5.5,0.1-11.1,0.1-16.6,0.2C9,39.4,6.3,39.4,3.9,38C2,37,0.8,35.4,0.6,33.3
	c-0.3-3.7-0.3-7.4-0.4-11.1c0-0.4,0-0.8,0-1.1C0.2,21,0.1,21,0,21z"/>
</svg>
